<?xml version="1.0" encoding="UTF-8" standalone="no"?>
<!-- Created with Inkscape (http://www.inkscape.org/) -->

<svg
   xmlns:dc="http://purl.org/dc/elements/1.1/"
   xmlns:cc="http://creativecommons.org/ns#"
   xmlns:rdf="http://www.w3.org/1999/02/22-rdf-syntax-ns#"
   xmlns:svg="http://www.w3.org/2000/svg"
   xmlns="http://www.w3.org/2000/svg"
   xmlns:xlink="http://www.w3.org/1999/xlink"
   xmlns:sodipodi="http://sodipodi.sourceforge.net/DTD/sodipodi-0.dtd"
   xmlns:inkscape="http://www.inkscape.org/namespaces/inkscape"
   width="1052.3622"
   height="744.09448"
   id="svg2"
   sodipodi:version="0.32"
   inkscape:version="0.48.2 r9819"
   version="1.0"
   inkscape:export-filename="/home/javaguirre/Escritorio/diplomas/1.png"
   inkscape:export-xdpi="300"
   inkscape:export-ydpi="300"
   sodipodi:docname="plantilla-madrid.svg"
   inkscape:output_extension="org.inkscape.output.svg.inkscape">
  <defs
     id="defs4">
    <linearGradient
       inkscape:collect="always"
       id="linearGradient3163">
      <stop
         style="stop-color:#800000;stop-opacity:1;"
         offset="0"
         id="stop3165" />
      <stop
         style="stop-color:#a10000;stop-opacity:1"
         offset="1"
         id="stop3167" />
    </linearGradient>
    <inkscape:perspective
       sodipodi:type="inkscape:persp3d"
       inkscape:vp_x="0 : 372.04724 : 1"
       inkscape:vp_y="0 : 1000 : 0"
       inkscape:vp_z="1052.3622 : 372.04724 : 1"
       inkscape:persp3d-origin="526.18109 : 248.03149 : 1"
       id="perspective3700" />
    <radialGradient
       id="aigrd7"
       cx="17.8335"
       cy="11.4873"
       r="22.709299"
       fx="17.8335"
       fy="11.4873"
       gradientUnits="userSpaceOnUse">
      <stop
         offset="0.0000000"
         style="stop-color:#ffffff;stop-opacity:0.17525773;"
         id="stop19512" />
      <stop
         offset="0.88200003"
         style="stop-color:#709ac8;stop-opacity:1.0000000;"
         id="stop19514" />
      <stop
         offset="1.0000000"
         style="stop-color:#6f96dd;stop-opacity:1.0000000;"
         id="stop19516" />
    </radialGradient>
    <linearGradient
       id="linearGradient20428">
      <stop
         style="stop-color:#a3a3a3;stop-opacity:1.0000000;"
         offset="0.0000000"
         id="stop20430" />
      <stop
         style="stop-color:#b5b5b5;stop-opacity:0;"
         offset="1"
         id="stop20432" />
    </linearGradient>
    <linearGradient
       id="linearGradient20393">
      <stop
         style="stop-color:#ffffff;stop-opacity:1;"
         offset="0"
         id="stop20395" />
      <stop
         id="stop2427"
         offset="0.41176471"
         style="stop-color:#ffffff;stop-opacity:0.68041235;" />
      <stop
         style="stop-color:#000000;stop-opacity:0.48039216;"
         offset="1.0000000"
         id="stop20397" />
    </linearGradient>
    <linearGradient
       id="linearGradient3265">
      <stop
         style="stop-color:#929470;stop-opacity:1;"
         offset="0"
         id="stop3267" />
      <stop
         id="stop3269"
         offset="0.26470590"
         style="stop-color:#60614a;stop-opacity:1.0000000;" />
      <stop
         style="stop-color:#f3f5ba;stop-opacity:1.0000000;"
         offset="0.63235295"
         id="stop3271" />
      <stop
         style="stop-color:#929470;stop-opacity:1.0000000;"
         offset="1.0000000"
         id="stop3273" />
    </linearGradient>
    <linearGradient
       id="linearGradient3311">
      <stop
         style="stop-color:#d6d7a5;stop-opacity:1;"
         offset="0"
         id="stop3313" />
      <stop
         style="stop-color:#8e8f6d;stop-opacity:1.0000000;"
         offset="1.0000000"
         id="stop3315" />
    </linearGradient>
    <linearGradient
       id="linearGradient2399">
      <stop
         id="stop2401"
         offset="0"
         style="stop-color:#929470;stop-opacity:1;" />
      <stop
         style="stop-color:#fcffc1;stop-opacity:1.0000000;"
         offset="0.26470590"
         id="stop2407" />
      <stop
         id="stop2409"
         offset="0.63235295"
         style="stop-color:#f3f5ba;stop-opacity:1.0000000;" />
      <stop
         id="stop2403"
         offset="1.0000000"
         style="stop-color:#929470;stop-opacity:1.0000000;" />
    </linearGradient>
    <linearGradient
       y2="37.226601"
       x2="30.169901"
       y1="37.226601"
       x1="18.9951"
       gradientUnits="userSpaceOnUse"
       id="linearGradient19894">
      <stop
         id="stop19896"
         style="stop-color:#A3A349"
         offset="5.618000e-003" />
      <stop
         id="stop19898"
         style="stop-color:#ACAC54"
         offset="2.078677e-002" />
      <stop
         id="stop19900"
         style="stop-color:#C1C172"
         offset="6.600059e-002" />
      <stop
         id="stop19902"
         style="stop-color:#D4D68E"
         offset="0.1148" />
      <stop
         id="stop19904"
         style="stop-color:#E2E4A6"
         offset="0.1677" />
      <stop
         id="stop19906"
         style="stop-color:#EDF0B8"
         offset="0.2265" />
      <stop
         id="stop19908"
         style="stop-color:#F3F6C3"
         offset="0.2963" />
      <stop
         id="stop19910"
         style="stop-color:#F5F8C7"
         offset="0.4045" />
      <stop
         id="stop19912"
         style="stop-color:#EEF0BE"
         offset="0.5239" />
      <stop
         id="stop19914"
         style="stop-color:#DBDDA9"
         offset="0.6666" />
      <stop
         id="stop19916"
         style="stop-color:#BEBD88"
         offset="0.8211" />
      <stop
         id="stop19918"
         style="stop-color:#989564"
         offset="0.9832" />
      <stop
         id="stop19920"
         style="stop-color:#949160"
         offset="1" />
    </linearGradient>
    <linearGradient
       id="aigrd1"
       gradientUnits="userSpaceOnUse"
       x1="23.124001"
       y1="43.165001"
       x2="26.4785"
       y2="43.165001">
      <stop
         offset="5.618000e-003"
         style="stop-color:#686868"
         id="stop19415" />
      <stop
         offset="3.012137e-002"
         style="stop-color:#777777"
         id="stop19417" />
      <stop
         offset="8.366583e-002"
         style="stop-color:#929292"
         id="stop19419" />
      <stop
         offset="0.1422"
         style="stop-color:#A7A7A7"
         id="stop19421" />
      <stop
         offset="0.2074"
         style="stop-color:#B6B6B6"
         id="stop19423" />
      <stop
         offset="0.2846"
         style="stop-color:#BEBEBE"
         id="stop19425" />
      <stop
         offset="0.4045"
         style="stop-color:#C1C1C1"
         id="stop19427" />
      <stop
         offset="0.4962"
         style="stop-color:#BCBCBC"
         id="stop19429" />
      <stop
         offset="0.6057"
         style="stop-color:#ADADAD"
         id="stop19431" />
      <stop
         offset="0.7245"
         style="stop-color:#959595"
         id="stop19433" />
      <stop
         offset="0.8497"
         style="stop-color:#747474"
         id="stop19435" />
      <stop
         offset="0.9789"
         style="stop-color:#494949"
         id="stop19437" />
      <stop
         offset="1"
         style="stop-color:#414141"
         id="stop19439" />
    </linearGradient>
    <linearGradient
       inkscape:collect="always"
       xlink:href="#linearGradient3163"
       id="linearGradient6786"
       gradientUnits="userSpaceOnUse"
       gradientTransform="matrix(1.0003044,0,0,1.0003044,-50.360096,-1.3289741)"
       x1="268.56125"
       y1="13.925398"
       x2="270.55057"
       y2="296.22723" />
    <inkscape:perspective
       id="perspective10"
       inkscape:persp3d-origin="372.04724 : 350.78739 : 1"
       inkscape:vp_z="744.09448 : 526.18109 : 1"
       inkscape:vp_y="0 : 1000 : 0"
       inkscape:vp_x="0 : 526.18109 : 1"
       sodipodi:type="inkscape:persp3d" />
    <inkscape:perspective
       id="perspective2477"
       inkscape:persp3d-origin="372.04724 : 350.78739 : 1"
       inkscape:vp_z="744.09448 : 526.18109 : 1"
       inkscape:vp_y="0 : 1000 : 0"
       inkscape:vp_x="0 : 526.18109 : 1"
       sodipodi:type="inkscape:persp3d" />
    <inkscape:perspective
       id="perspective3021"
       inkscape:persp3d-origin="0.5 : 0.33333333 : 1"
       inkscape:vp_z="1 : 0.5 : 1"
       inkscape:vp_y="0 : 1000 : 0"
       inkscape:vp_x="0 : 0.5 : 1"
       sodipodi:type="inkscape:persp3d" />
    <inkscape:perspective
       id="perspective3413"
       inkscape:persp3d-origin="0.5 : 0.33333333 : 1"
       inkscape:vp_z="1 : 0.5 : 1"
       inkscape:vp_y="0 : 1000 : 0"
       inkscape:vp_x="0 : 0.5 : 1"
       sodipodi:type="inkscape:persp3d" />
    <linearGradient
       inkscape:collect="always"
       xlink:href="#linearGradient4089-8-2"
       id="linearGradient3521"
       gradientUnits="userSpaceOnUse"
       gradientTransform="matrix(0.28427258,0,0,0.28427258,-1949.671,2968.3982)"
       x1="248.52489"
       y1="434.82745"
       x2="-202.76639"
       y2="313.90433" />
    <linearGradient
       id="linearGradient4089-8-2">
      <stop
         style="stop-color:#175f1f;stop-opacity:1;"
         offset="0"
         id="stop4091-5-2" />
      <stop
         style="stop-color:#35cf48;stop-opacity:1"
         offset="1"
         id="stop4093-0-3" />
    </linearGradient>
  </defs>
  <sodipodi:namedview
     id="base"
     pagecolor="white"
     bordercolor="#666666"
     borderopacity="1.0"
     inkscape:pageopacity="1"
     inkscape:pageshadow="2"
     inkscape:zoom="0.59785739"
     inkscape:cx="598.64224"
     inkscape:cy="385.25678"
     inkscape:document-units="px"
     inkscape:current-layer="layer1"
     width="1052.3622px"
     height="744.09448px"
     inkscape:window-width="1366"
     inkscape:window-height="710"
     inkscape:window-x="0"
     inkscape:window-y="26"
     showgrid="false"
     borderlayer="true"
     inkscape:window-maximized="1"
     showguides="true"
     inkscape:guide-bbox="true" />
  <metadata
     id="metadata7">
    <rdf:RDF>
      <cc:Work
         rdf:about="">
        <dc:format>image/svg+xml</dc:format>
        <dc:type
           rdf:resource="http://purl.org/dc/dcmitype/StillImage" />
        <dc:title />
      </cc:Work>
    </rdf:RDF>
  </metadata>
  <g
     inkscape:label="Capa 1"
     inkscape:groupmode="layer"
     id="layer1">
    <g
       id="g3770"
       transform="matrix(0.99351699,0.11368373,-0.11368373,0.99351699,82.560103,41.78644)"
       style="fill:#ffd5d5">
      <rect
         y="182.03021"
         x="-73.949776"
         height="99.547775"
         width="91.015106"
         id="rect3754"
         style="fill:#ffd5d5;fill-opacity:1;stroke:none" />
      <rect
         y="344.15088"
         x="59.728664"
         height="54.040218"
         width="56.884441"
         id="rect3756"
         style="fill:#ffd5d5;fill-opacity:1;stroke:none" />
      <rect
         y="332.77399"
         x="142.21111"
         height="96.703552"
         width="88.170883"
         id="rect3758"
         style="fill:#ffd5d5;fill-opacity:1;stroke:none" />
      <rect
         y="241.75888"
         x="179.18599"
         height="119.45733"
         width="99.547775"
         id="rect3760"
         style="fill:#ffd5d5;fill-opacity:1;stroke:none" />
      <rect
         y="420.94489"
         x="8.5326662"
         height="102.392"
         width="91.015106"
         id="rect3762"
         style="fill:#ffd5d5;fill-opacity:1;stroke:none" />
      <rect
         y="452.23132"
         x="204.784"
         height="65.417107"
         width="122.30155"
         id="rect3764"
         style="fill:#ffd5d5;fill-opacity:1;stroke:none" />
      <rect
         y="358.37198"
         x="315.70865"
         height="82.482445"
         width="93.859329"
         id="rect3766"
         style="fill:#ffd5d5;fill-opacity:1;stroke:none" />
      <rect
         y="534.71375"
         x="264.51266"
         height="71.105553"
         width="79.638222"
         id="rect3768"
         style="fill:#ffd5d5;fill-opacity:1;stroke:none" />
    </g>
    <g
       transform="matrix(1.1999491,0.13730515,-0.13730515,1.1999491,595.47683,-218.72386)"
       id="g3280"
       style="fill:#ffd5d5">
      <rect
         style="fill:#ffd5d5;fill-opacity:1;stroke:none"
         id="rect3282"
         width="91.015106"
         height="99.547775"
         x="-73.949776"
         y="182.03021" />
      <rect
         style="fill:#ffd5d5;fill-opacity:1;stroke:none"
         id="rect3284"
         width="56.884441"
         height="54.040218"
         x="59.728664"
         y="344.15088" />
      <rect
         style="fill:#ffd5d5;fill-opacity:1;stroke:none"
         id="rect3286"
         width="88.170883"
         height="96.703552"
         x="142.21111"
         y="332.77399" />
      <rect
         style="fill:#ffd5d5;fill-opacity:1;stroke:none"
         id="rect3288"
         width="99.547775"
         height="119.45733"
         x="179.18599"
         y="241.75888" />
      <rect
         style="fill:#ffd5d5;fill-opacity:1;stroke:none"
         id="rect3290"
         width="91.015106"
         height="102.392"
         x="8.5326662"
         y="420.94489" />
      <rect
         style="fill:#ffd5d5;fill-opacity:1;stroke:none"
         id="rect3292"
         width="122.30155"
         height="65.417107"
         x="204.784"
         y="452.23132" />
      <rect
         style="fill:#ffd5d5;fill-opacity:1;stroke:none"
         id="rect3294"
         width="93.859329"
         height="82.482445"
         x="315.70865"
         y="358.37198" />
      <rect
         style="fill:#ffd5d5;fill-opacity:1;stroke:none"
         id="rect3296"
         width="79.638222"
         height="71.105553"
         x="264.51266"
         y="534.71375" />
    </g>
    <rect
       ry="0"
       rx="0"
       y="-72.302582"
       x="-12.028509"
       height="311.34164"
       width="1116.6831"
       id="rect3298"
       style="fill:#ff0000;fill-opacity:1;stroke:none"
       transform="matrix(0.99925392,0.03862122,-0.03862122,0.99925392,0,0)" />
    <flowRoot
       xml:space="preserve"
       id="flowRoot4088"
       style="font-size:10px;font-style:normal;font-variant:normal;font-weight:normal;font-stretch:normal;text-align:center;line-height:125%;writing-mode:lr-tb;text-anchor:middle;fill:#000000;fill-opacity:1;display:inline;font-family:Georgia"
       transform="matrix(1.770927,0,0,1.770927,340.90477,481.9399)"
       inkscape:export-filename="/home/rafa/Desktop/logo-planet.png"
       inkscape:export-xdpi="38.946346"
       inkscape:export-ydpi="38.946346"><flowRegion
         id="flowRegion4090"><rect
           id="rect4092"
           width="591.44025"
           height="36.477459"
           x="-190.18311"
           y="100.67062"
           style="font-size:10px;font-style:normal;font-variant:normal;font-weight:normal;font-stretch:normal;text-align:center;line-height:125%;writing-mode:lr-tb;text-anchor:middle;fill:#000000;fill-opacity:1;font-family:Georgia" /></flowRegion><flowPara
         id="flowPara4094">#FIrmante</flowPara><flowPara
         id="flowPara3166" /></flowRoot>    <flowRoot
       xml:space="preserve"
       id="flowRoot3214"
       style="font-size:10px;font-style:normal;font-variant:normal;font-weight:normal;font-stretch:normal;text-align:center;line-height:125%;writing-mode:lr-tb;text-anchor:middle;fill:#000000;fill-opacity:1;display:inline;font-family:Georgia"
       transform="matrix(2.57151,0,0,2.57151,-76.961054,5.1074)"
       inkscape:export-filename="/home/rafa/Desktop/logo-planet.png"
       inkscape:export-xdpi="38.946346"
       inkscape:export-ydpi="38.946346"><flowRegion
         id="flowRegion3216"><rect
           id="rect3218"
           width="407.21454"
           height="53.336906"
           x="31.34671"
           y="104.19184"
           style="font-size:10px;font-style:normal;font-variant:normal;font-weight:normal;font-stretch:normal;text-align:center;line-height:125%;writing-mode:lr-tb;text-anchor:middle;fill:#000000;fill-opacity:1;font-family:Georgia" /></flowRegion><flowPara
         id="flowPara3220">El comité de evaluación y la organización del Premio Local de Madrid</flowPara><flowPara
         id="flowPara2531">del V Concurso Universitario de Software Libre</flowPara></flowRoot>    <flowRoot
       xml:space="preserve"
       id="flowRoot3259"
       style="font-size:10px;font-style:normal;font-variant:normal;font-weight:normal;font-stretch:normal;text-align:center;line-height:125%;writing-mode:lr-tb;text-anchor:middle;fill:#000000;fill-opacity:1;display:inline;font-family:Georgia"
       transform="matrix(3.664442,0,0,3.664442,1.2622998,-48.8598)"
       inkscape:export-filename="/home/rafa/Desktop/logo-planet.png"
       inkscape:export-xdpi="38.946346"
       inkscape:export-ydpi="38.946346"><flowRegion
         id="flowRegion3261"><rect
           id="rect3263"
           width="282.9324"
           height="18.538786"
           x="1.8956318"
           y="104.35499"
           style="font-size:10px;font-style:normal;font-variant:normal;font-weight:normal;font-stretch:normal;text-align:center;line-height:125%;writing-mode:lr-tb;text-anchor:middle;fill:#000000;fill-opacity:1;font-family:Georgia" /></flowRegion><flowPara
         id="flowPara3265">otorga el <flowSpan
   style="font-weight:bold;-inkscape-font-specification:Georgia Bold"
   id="flowSpan3174">Primer Premio</flowSpan><flowSpan
   style="font-weight:normal;text-align:center;text-anchor:middle;-inkscape-font-specification:Georgia"
   id="flowSpan4181"> a</flowSpan></flowPara></flowRoot>    <flowRoot
       xml:space="preserve"
       id="flowRoot4096"
       style="font-size:10px;font-style:normal;font-variant:normal;font-weight:normal;font-stretch:normal;text-align:center;line-height:125%;writing-mode:lr-tb;text-anchor:middle;fill:#000000;fill-opacity:1;display:inline;font-family:Georgia"
       transform="matrix(1.309554,0,0,1.309554,280.11922,544.1017)"
       inkscape:export-filename="/home/rafa/Desktop/logo-planet.png"
       inkscape:export-xdpi="38.946346"
       inkscape:export-ydpi="38.946346"><flowRegion
         id="flowRegion4098"><rect
           id="rect4100"
           width="796.77863"
           height="48.81356"
           x="-211.43628"
           y="106.3107"
           style="font-size:10px;font-style:normal;font-variant:normal;font-weight:normal;font-stretch:normal;text-align:center;line-height:125%;writing-mode:lr-tb;text-anchor:middle;fill:#000000;fill-opacity:1;font-family:Georgia" /></flowRegion><flowPara
         id="flowPara2537">#universidad</flowPara><flowPara
         id="flowPara2513" /></flowRoot>    <flowRoot
       xml:space="preserve"
       id="flowRoot4106"
       style="font-size:10px;font-style:normal;font-variant:normal;font-weight:normal;font-stretch:normal;text-align:center;line-height:125%;writing-mode:lr-tb;text-anchor:middle;fill:#000000;fill-opacity:1;display:inline;font-family:Georgia"
       transform="matrix(2.912177,0,0,2.912177,298.78244,233.5148)"
       inkscape:export-filename="/home/rafa/Desktop/logo-planet.png"
       inkscape:export-xdpi="38.946346"
       inkscape:export-ydpi="38.946346"><flowRegion
         id="flowRegion4108"><rect
           id="rect4110"
           width="353.46582"
           height="21.806559"
           x="-100.32261"
           y="102.80681"
           style="font-size:10px;font-style:normal;font-variant:normal;font-weight:normal;font-stretch:normal;text-align:center;line-height:125%;writing-mode:lr-tb;text-anchor:middle;fill:#000000;fill-opacity:1;font-family:Georgia" /></flowRegion><flowPara
         id="flowPara4112">en Madrid, a 15 de Abril de 2011</flowPara></flowRoot>    <flowRoot
       inkscape:export-ydpi="38.946346"
       inkscape:export-xdpi="38.946346"
       inkscape:export-filename="/home/rafa/Desktop/logo-planet.png"
       transform="matrix(3.7218791,0,0,3.7218791,-6.9663927,2.4818675)"
       style="font-size:10px;font-style:normal;font-variant:normal;font-weight:normal;font-stretch:normal;text-align:center;line-height:125%;writing-mode:lr-tb;text-anchor:middle;fill:#000000;fill-opacity:1;display:inline;font-family:Georgia"
       id="flowRoot4207"
       xml:space="preserve"><flowRegion
         id="flowRegion4209"><rect
           style="font-size:10px;font-style:normal;font-variant:normal;font-weight:normal;font-stretch:normal;text-align:center;line-height:125%;writing-mode:lr-tb;text-anchor:middle;fill:#000000;fill-opacity:1;font-family:Georgia"
           y="104.35499"
           x="1.8956318"
           height="26.599691"
           width="283.7001"
           id="rect4211" /></flowRegion><flowPara
         id="flowPara4213"
         style="font-weight:bold">#nombre</flowPara></flowRoot>    <flowRoot
       inkscape:export-ydpi="38.946346"
       inkscape:export-xdpi="38.946346"
       inkscape:export-filename="/home/rafa/Desktop/logo-planet.png"
       transform="matrix(3.664442,0,0,3.664442,1.2622998,81.1402)"
       style="font-size:10px;font-style:normal;font-variant:normal;font-weight:normal;font-stretch:normal;text-align:center;line-height:125%;writing-mode:lr-tb;text-anchor:middle;fill:#000000;fill-opacity:1;display:inline;font-family:Georgia"
       id="flowRoot4235"
       xml:space="preserve"><flowRegion
         id="flowRegion4237"><rect
           style="font-size:10px;font-style:normal;font-variant:normal;font-weight:normal;font-stretch:normal;text-align:center;line-height:125%;writing-mode:lr-tb;text-anchor:middle;fill:#000000;fill-opacity:1;font-family:Georgia"
           y="104.35499"
           x="1.8956318"
           height="26.599691"
           width="283.7001"
           id="rect4239" /></flowRegion><flowPara
         id="flowPara4241"
         style="font-size:10px;font-weight:bold"><flowSpan
           style="font-weight:normal"
           id="flowSpan4247">por el proyecto #proyecto</flowSpan></flowPara></flowRoot>    <g
       transform="matrix(0.99999997,-2.5292055e-4,2.5292055e-4,0.99999997,0,0)"
       style="font-size:77.02173615px;font-style:normal;font-variant:normal;font-weight:normal;font-stretch:normal;text-align:center;line-height:125%;writing-mode:lr-tb;text-anchor:middle;fill:#ffffff;fill-opacity:1;stroke:none;font-family:Dream of me;-inkscape-font-specification:Dream of me"
       id="text3142">
      <text
         xml:space="preserve"
         style="font-size:82.73556519px;font-style:normal;font-variant:normal;font-weight:normal;font-stretch:normal;text-align:center;line-height:100%;writing-mode:lr-tb;text-anchor:middle;fill:#ffffff;fill-opacity:1;stroke:none;font-family:Dream of me;-inkscape-font-specification:Dream of me"
         x="518.177"
         y="94.513138"
         id="text2996"
         transform="matrix(0.99999997,2.5292055e-4,-2.5292055e-4,0.99999997,0,0)"
         sodipodi:linespacing="100%"><tspan
           sodipodi:role="line"
           id="tspan2998"
           x="518.177"
           y="94.513138">I Premio Local Madrid</tspan></text>
    </g>
    <g
       transform="matrix(0.99963031,-0.02718912,0.02718912,0.99963031,0,0)"
       style="font-size:79.88224792px;font-style:normal;font-variant:normal;font-weight:normal;font-stretch:normal;text-align:center;line-height:125%;writing-mode:lr-tb;text-anchor:middle;fill:#000000;fill-opacity:1;stroke:none;font-family:Dream of me;-inkscape-font-specification:Dream of me"
       id="text2581">
      <path
         d="m 114.38609,164.61999 c -4e-5,0.63908 -0.10655,3.24856 -0.31953,7.82846 -2.60952,0.26628 -5.32552,0.45268 -8.14799,0.55917 -1.70418,0.0533 -4.44681,0.0533 -8.227868,0 l -11.582926,-0.0799 0,8.86693 0.71894,1.11835 10.704222,0 c 0.63903,0 2.369811,-0.31952 5.192342,-0.95858 l 0,-4.47341 1.51777,-0.8787 7.26928,0 2.31659,2.71599 c -1.01189,3.7811 -3.38173,7.10952 -7.10952,9.98528 -3.72787,2.92901 -7.535591,4.39352 -11.423165,4.39353 -15.071127,-10e-6 -22.606678,-9.29297 -22.606677,-27.87891 -10e-7,-5.858 1.943798,-11.31662 5.831405,-16.37586 4.153865,-5.3787 9.079932,-8.04144 14.778215,-7.98822 l 8.547402,0.0799 c 4.42011,0.0533 7.74854,2.92905 9.98528,8.62728 1.70411,4.31367 2.55619,9.13323 2.55623,14.45869 m -9.26634,-0.63906 0,-10.94387 c -8.627307,0.79886 -14.325569,1.19827 -17.0948,1.19824 -0.639074,3e-5 -1.144995,-0.0799 -1.517763,-0.23965 l -1.118351,8.62728 0.798822,1.358 18.932092,0"
         style="fill:#000000;font-family:Dream of me;-inkscape-font-specification:Dream of me"
         id="path4697" />
      <path
         d="m 155.76634,189.14384 -8.62728,-0.15977 -0.79882,-0.8787 -0.47929,-18.93209 c -0.26631,-9.85212 -0.66572,-15.49713 -1.19824,-16.93504 l -8.5474,0.47929 c -3.14205,0.21305 -5.96456,0.61247 -8.46752,1.19824 l -0.71894,34.98842 -1.35799,0.0799 c -2.87577,0.15976 -5.16573,-0.2929 -6.86988,-1.35799 -0.53255,-0.31954 -0.95859,-3.06216 -1.27811,-8.22788 -0.21303,-3.46155 -0.31954,-6.49707 -0.31953,-9.10657 -1e-5,-0.15975 0.26627,-9.58585 0.79882,-28.27832 l 7.90834,-2.47635 1.27812,0.79883 0,4.71305 0.39941,0.47929 c 0.0532,-0.15972 0.1065,-0.34612 0.15976,-0.55917 l 0.63906,0.23964 7.1894,-2.71599 10.70422,0 c 7.13611,4e-5 10.70418,9.79892 10.70423,29.39666 -5e-5,10.11842 -0.37283,15.86994 -1.11836,17.25457"
         style="fill:#000000;font-family:Dream of me;-inkscape-font-specification:Dream of me"
         id="path4699" />
      <path
         d="m 240.45027,164.61999 c -4e-5,0.63908 -0.10655,3.24856 -0.31953,7.82846 -2.60953,0.26628 -5.32552,0.45268 -8.14799,0.55917 -1.70419,0.0533 -4.44681,0.0533 -8.22787,0 l -11.58293,-0.0799 0,8.86693 0.71894,1.11835 10.70423,0 c 0.63903,0 2.36981,-0.31952 5.19234,-0.95858 l 0,-4.47341 1.51776,-0.8787 7.26929,0 2.31658,2.71599 c -1.01188,3.7811 -3.38172,7.10952 -7.10952,9.98528 -3.72787,2.92901 -7.53558,4.39352 -11.42316,4.39353 -15.07112,-10e-6 -22.60667,-9.29297 -22.60667,-27.87891 0,-5.858 1.94379,-11.31662 5.8314,-16.37586 4.15387,-5.3787 9.07993,-8.04144 14.77822,-7.98822 l 8.5474,0.0799 c 4.42011,0.0533 7.74854,2.92905 9.98528,8.62728 1.70411,4.31367 2.55619,9.13323 2.55623,14.45869 m -9.26634,-0.63906 0,-10.94387 c -8.62731,0.79886 -14.32557,1.19827 -17.0948,1.19824 -0.63908,3e-5 -1.145,-0.0799 -1.51776,-0.23965 l -1.11836,8.62728 0.79883,1.358 18.93209,0"
         style="fill:#000000;font-family:Dream of me;-inkscape-font-specification:Dream of me"
         id="path4701" />
      <path
         d="m 255.46938,133.62568 -0.79882,54.0004 -1.83729,-0.23965 c -0.74558,0 -1.89056,0.15976 -3.43494,0.47929 -1.49114,0.37278 -2.60949,0.55917 -3.35505,0.55918 l -1.27812,-0.23965 -0.55918,-0.8787 c 0.0533,-5.5385 0.37278,-14.80483 0.95859,-27.79903 0.53254,-11.76928 0.79882,-21.00898 0.79882,-27.71914 0,-0.74551 -0.42604,-1.54433 -1.27811,-2.39646 0.79882,-1.22481 2.10356,-2.07688 3.91423,-2.55623 l 4.71305,-0.79883 1.59765,1.03847 c 0.37276,3.99417 0.55916,6.17761 0.55917,6.55035"
         style="fill:#000000;font-family:Dream of me;-inkscape-font-specification:Dream of me"
         id="path4703" />
    </g>
    <g
       transform="matrix(0.57224877,0.00250441,-0.00250441,0.57224877,586.83167,-114.14149)"
       style="font-size:12px;font-style:normal;font-weight:normal;fill:#000000;fill-opacity:1;stroke:none;font-family:Bitstream Vera Sans"
       id="flowRoot3397">
      <path
         d="m 99.81543,450.91593 c -0.341833,1.80668 -1.391636,2.85648 -3.149414,3.14941 l -3.881836,0 c -1.855496,-0.19527 -2.9053,-1.22066 -3.149414,-3.07617 l 0,-2.92968 c -0.341823,-3.66207 -2.343774,-5.71285 -6.00586,-6.15235 -3.857437,0.4395 -5.957045,2.49028 -6.298828,6.15235 l 0,23.51074 c 0.341783,3.8086 2.441391,5.8838 6.298828,6.22558 3.662086,-0.34178 5.664037,-2.41698 6.00586,-6.22558 l 0,-3.14942 c 0.244114,-1.85545 1.342746,-2.88083 3.295898,-3.07617 l 3.588867,0 c 1.855435,0.24416 2.954066,1.26955 3.295899,3.07617 l 0,3.14942 c -1.123082,9.76563 -6.518584,15.08789 -16.186524,15.96679 -9.863291,-0.78125 -15.185551,-6.10351 -15.966797,-15.96679 l 0,-23.73047 c 0.732418,-9.86323 6.054678,-15.30756 15.966797,-16.33301 9.765596,1.02545 15.161098,6.46978 16.186524,16.33301 l 0,3.07617"
         style="font-size:75px;font-variant:normal;font-weight:bold;font-stretch:normal;font-family:PTF NORDIC Rnd;-inkscape-font-specification:PTF NORDIC Rnd Bold"
         id="path4769"
         inkscape:connector-curvature="0" />
      <path
         d="m 123.25293,431.50675 c 9.81442,0.97662 15.20993,6.37212 16.18652,16.18652 l 0,23.87696 c -1.02542,9.76563 -6.42092,15.08789 -16.18652,15.96679 -9.76564,-0.92773 -15.11231,-6.24999 -16.04004,-15.96679 l 0,-23.87696 c 0.83007,-9.8144 6.17675,-15.2099 16.04004,-16.18652 m 6.29883,40.13672 0,-23.65723 c -0.39065,-3.80855 -2.49026,-5.88374 -6.29883,-6.22558 -3.80861,0.39067 -5.8838,2.46586 -6.22559,6.22558 l 0,23.65723 c 0.34179,3.8086 2.41698,5.83497 6.22559,6.0791 3.80857,-0.24413 5.90818,-2.2705 6.29883,-6.0791"
         style="font-size:75px;font-variant:normal;font-weight:bold;font-stretch:normal;font-family:PTF NORDIC Rnd;-inkscape-font-specification:PTF NORDIC Rnd Bold"
         id="path4771"
         inkscape:connector-curvature="0" />
      <path
         d="m 178.84375,484.31437 c -0.0489,1.70898 -0.92777,2.56347 -2.63672,2.56347 l -0.43945,0 -0.58594,0 -2.92969,0 -0.29297,0 -0.43945,0 c -2.00198,0.0977 -3.39358,-0.75683 -4.1748,-2.56347 -3.66213,-8.59374 -7.27541,-17.18748 -10.83985,-25.78125 l 0,19.99512 0,5.27343 c -0.19532,1.9043 -1.22071,2.92969 -3.07617,3.07617 l -3.73535,0 c -1.75782,-0.14648 -2.73438,-1.07421 -2.92969,-2.7832 l 0,-49.58496 0,-0.36621 c 0.0977,-1.46479 0.92773,-2.12397 2.49024,-1.97754 l 1.02539,0 2.85644,0 0.73242,0 c 1.95312,-0.14643 3.39354,0.70806 4.32129,2.56348 3.51561,8.74027 7.10447,17.43167 10.7666,26.07422 l 0,-25.56153 c 0.19529,-1.80658 1.22068,-2.83197 3.07618,-3.07617 l 3.80859,0 c 1.70895,0.14654 2.73434,1.07427 3.07617,2.7832 l 0,13.69629 0,22.19239 c -0.0489,4.39454 -0.0733,8.76465 -0.0732,13.11035 l 0,0.36621"
         style="font-size:75px;font-variant:normal;font-weight:bold;font-stretch:normal;font-family:PTF NORDIC Rnd;-inkscape-font-specification:PTF NORDIC Rnd Bold"
         id="path4773"
         inkscape:connector-curvature="0" />
      <path
         d="m 218.46777,450.91593 c -0.34183,1.80668 -1.39163,2.85648 -3.14941,3.14941 l -3.88184,0 c -1.85549,-0.19527 -2.9053,-1.22066 -3.14941,-3.07617 l 0,-2.92968 c -0.34182,-3.66207 -2.34377,-5.71285 -6.00586,-6.15235 -3.85744,0.4395 -5.95704,2.49028 -6.29883,6.15235 l 0,23.51074 c 0.34179,3.8086 2.44139,5.8838 6.29883,6.22558 3.66209,-0.34178 5.66404,-2.41698 6.00586,-6.22558 l 0,-3.14942 c 0.24411,-1.85545 1.34275,-2.88083 3.2959,-3.07617 l 3.58886,0 c 1.85544,0.24416 2.95407,1.26955 3.2959,3.07617 l 0,3.14942 c -1.12308,9.76563 -6.51858,15.08789 -16.18652,15.96679 -9.86329,-0.78125 -15.18555,-6.10351 -15.9668,-15.96679 l 0,-23.73047 c 0.73242,-9.86323 6.05468,-15.30756 15.9668,-16.33301 9.7656,1.02545 15.1611,6.46978 16.18652,16.33301 l 0,3.07617"
         style="font-size:75px;font-variant:normal;font-weight:bold;font-stretch:normal;font-family:PTF NORDIC Rnd;-inkscape-font-specification:PTF NORDIC Rnd Bold"
         id="path4775"
         inkscape:connector-curvature="0" />
      <path
         d="m 254.94238,432.16593 c 1.6113,0.29302 2.61227,1.24517 3.00293,2.85645 l 0,36.9873 c -0.14652,2.68556 -0.87894,5.20021 -2.19726,7.54395 -3.27152,5.27344 -7.91019,7.91015 -13.91602,7.91015 -6.00587,0 -10.64454,-2.63671 -13.91601,-7.91015 -1.3672,-2.34374 -2.05079,-4.85839 -2.05079,-7.54395 l 0,-36.9873 c 0.24414,-1.66011 1.2207,-2.61225 2.92969,-2.85645 l 3.8086,0 c 1.85545,0.29302 2.85643,1.34283 3.00293,3.14941 -2e-5,12.2559 0.0244,24.48734 0.0732,36.69434 0.14647,3.75978 2.14842,5.7129 6.00586,5.85938 4.00388,0 6.1279,-1.9287 6.37207,-5.78614 -3e-5,-12.207 0.0244,-24.46285 0.0732,-36.76758 0.14646,-1.80658 1.14743,-2.85639 3.00293,-3.14941 l 3.80859,0"
         style="font-size:75px;font-variant:normal;font-weight:bold;font-stretch:normal;font-family:PTF NORDIC Rnd;-inkscape-font-specification:PTF NORDIC Rnd Bold"
         id="path4777"
         inkscape:connector-curvature="0" />
      <path
         d="m 292.58887,459.70499 0,0 c 2.78317,2.88089 4.15035,6.32327 4.10156,10.32715 l 0,13.91602 c -0.19535,1.9043 -1.19632,2.90527 -3.00293,3.00293 l -3.73535,0 c -1.90432,-0.0977 -2.92971,-1.09863 -3.07617,-3.00293 l 0,-13.1836 c -0.43948,-3.75974 -2.53909,-5.81052 -6.29883,-6.15234 l -1.46485,0 -2.34375,0 c -0.92774,0.0977 -1.46485,0.61037 -1.61132,1.53809 l 0,17.79785 c -0.19533,1.9043 -1.22072,2.90527 -3.07618,3.00293 l -3.80859,0 c -1.80664,-0.14649 -2.80762,-1.14746 -3.00293,-3.00293 l 0,-19.33594 0,-9.96094 0,-19.40918 c 0.19531,-1.70893 1.12304,-2.73432 2.7832,-3.07617 l 0.43946,0 3.95508,0 8.49609,0 c 9.81442,0.97662 15.20993,6.39653 16.18652,16.25977 -0.0977,4.34573 -1.61136,8.1055 -4.54101,11.27929 m -12.01172,-5.05371 c 3.75974,-0.34176 5.85935,-2.41696 6.29883,-6.22558 -0.43948,-3.80856 -2.53909,-5.88375 -6.29883,-6.22559 l -3.8086,0 c -0.97657,0.0977 -1.51368,0.6104 -1.61132,1.53809 l 0,9.375 c 0.0976,0.97659 0.63475,1.48929 1.61132,1.53808 l 3.8086,0"
         style="font-size:75px;font-variant:normal;font-weight:bold;font-stretch:normal;font-family:PTF NORDIC Rnd;-inkscape-font-specification:PTF NORDIC Rnd Bold"
         id="path4779"
         inkscape:connector-curvature="0" />
      <path
         d="m 336.24121,468.49406 c 0.19528,0.97658 0.29293,1.85548 0.29297,2.63671 l 0,0.0733 0,0 c -0.0977,5.76173 -2.3682,10.20508 -6.81152,13.33007 -4.44339,3.125 -9.37502,3.83301 -14.79493,2.12403 l 0,-0.14649 c -2.97852,-1.02539 -5.68848,-2.36816 -8.12988,-4.02832 -0.53711,-0.29296 -1.09864,-0.61034 -1.68457,-0.95215 -1.36719,-0.92772 -1.68457,-2.29491 -0.95215,-4.10156 0.53711,-0.97655 1.14746,-2.00194 1.83106,-3.07617 1.02538,-1.56249 2.41698,-1.9287 4.1748,-1.09863 0.5371,0.34181 1.19628,0.6836 1.97754,1.02539 1.66014,1.07423 3.44237,2.02638 5.34668,2.85644 1.95311,0.78126 3.90623,0.75685 5.85938,-0.0732 3.41794,-2.49022 3.88181,-5.51756 1.3916,-9.08203 -1.80667,-1.61131 -3.85744,-3.02732 -6.15235,-4.24805 -2.09962,-1.02536 -4.19923,-2.17282 -6.29882,-3.44238 -4.39454,-1.90427 -7.1045,-5.05368 -8.12989,-9.44824 -0.29297,-0.9277 -0.41504,-1.8066 -0.36621,-2.63672 l 0,-0.0732 c 0.0488,-5.2734 2.09961,-9.61909 6.15235,-13.03711 4.05272,-3.41792 8.76463,-4.49213 14.13574,-3.22266 l 0,0.14649 c 3.36911,1.02544 6.51852,2.44145 9.44824,4.24804 l -0.0732,0 c 0.5859,0.39068 1.19625,0.73247 1.83105,1.02539 1.70895,1.1231 2.05075,2.61236 1.02539,4.46778 -0.68363,1.02543 -1.3428,2.07524 -1.97754,3.14941 -1.07425,1.56254 -2.46585,1.92875 -4.1748,1.09863 -0.53714,-0.34175 -1.14749,-0.68355 -1.83106,-1.02539 -3.22268,-2.49019 -6.78713,-3.46675 -10.69335,-2.92968 -3.9551,2.39262 -4.68752,5.4932 -2.19727,9.30175 1.90428,1.56254 3.97947,2.83207 6.22559,3.8086 2.09958,1.1719 4.2236,2.36819 6.37207,3.58886 4.34567,2.05081 7.08004,5.29788 8.20312,9.74122"
         style="font-size:75px;font-variant:normal;font-weight:bold;font-stretch:normal;font-family:PTF NORDIC Rnd;-inkscape-font-specification:PTF NORDIC Rnd Bold"
         id="path4781"
         inkscape:connector-curvature="0" />
      <path
         d="m 359.89844,431.50675 c 9.81442,1.02545 15.20992,6.44536 16.18652,16.25977 l 0,23.80371 c -0.9766,9.81446 -6.3721,15.13672 -16.18652,15.96679 -9.86329,-0.8789 -15.23438,-6.20116 -16.11328,-15.96679 l 0,-23.80371 c 0.8789,-9.81441 6.24999,-15.23432 16.11328,-16.25977 m 6.29883,40.13672 0,-23.4375 c -0.39066,-3.85738 -2.49026,-5.9814 -6.29883,-6.37207 -3.85744,0.4395 -5.95705,2.56352 -6.29883,6.37207 l 0,23.4375 c 0.39061,3.8086 2.49022,5.8838 6.29883,6.22559 3.80857,-0.34179 5.90817,-2.41699 6.29883,-6.22559"
         style="font-size:75px;font-variant:normal;font-weight:bold;font-stretch:normal;font-family:PTF NORDIC Rnd;-inkscape-font-specification:PTF NORDIC Rnd Bold"
         id="path4783"
         inkscape:connector-curvature="0" />
    </g>
    <g
       transform="matrix(0.57224877,0.00250441,-0.00250441,0.57224877,586.65828,-74.521901)"
       style="font-size:12px;font-style:normal;font-weight:normal;fill:#000000;fill-opacity:1;stroke:none;font-family:Bitstream Vera Sans"
       id="flowRoot3405">
      <path
         d="m 96.739258,432.16593 c 1.611294,0.29302 2.612269,1.24517 3.002929,2.85645 l 0,36.9873 c -0.146519,2.68556 -0.878941,5.20021 -2.197265,7.54395 -3.271515,5.27344 -7.910182,7.91015 -13.916016,7.91015 -6.005873,0 -10.64454,-2.63671 -13.916015,-7.91015 -1.367192,-2.34374 -2.050785,-4.85839 -2.050782,-7.54395 l 0,-36.9873 c 0.244137,-1.66011 1.220699,-2.61225 2.929688,-2.85645 l 3.808594,0 c 1.855456,0.29302 2.856432,1.34283 3.002929,3.14941 -1.3e-5,12.2559 0.0244,24.48734 0.07324,36.69434 0.146471,3.75978 2.148422,5.7129 6.00586,5.85938 4.003883,0 6.127904,-1.9287 6.37207,-5.78614 -2.6e-5,-12.207 0.02439,-24.46285 0.07324,-36.76758 0.146459,-1.80658 1.147434,-2.85639 3.00293,-3.14941 l 3.808594,0"
         style="font-size:75px;font-variant:normal;font-weight:bold;font-stretch:normal;font-family:PTF NORDIC Rnd;-inkscape-font-specification:PTF NORDIC Rnd Bold"
         id="path4738"
         inkscape:connector-curvature="0" />
      <path
         d="m 139.14648,484.31437 c -0.0489,1.70898 -0.92776,2.56347 -2.63671,2.56347 l -0.43946,0 -0.58594,0 -2.92968,0 -0.29297,0 -0.43945,0 c -2.00198,0.0977 -3.39358,-0.75683 -4.17481,-2.56347 -3.66213,-8.59374 -7.27541,-17.18748 -10.83984,-25.78125 l 0,19.99512 0,5.27343 c -0.19533,1.9043 -1.22072,2.92969 -3.07617,3.07617 l -3.73536,0 c -1.75781,-0.14648 -2.73438,-1.07421 -2.92968,-2.7832 l 0,-49.58496 0,-0.36621 c 0.0977,-1.46479 0.92773,-2.12397 2.49023,-1.97754 l 1.02539,0 2.85645,0 0.73242,0 c 1.95311,-0.14643 3.39354,0.70806 4.32129,2.56348 3.5156,8.74027 7.10447,17.43167 10.7666,26.07422 l 0,-25.56153 c 0.19529,-1.80658 1.22068,-2.83197 3.07617,-3.07617 l 3.80859,0 c 1.70895,0.14654 2.73434,1.07427 3.07618,2.7832 l 0,13.69629 0,22.19239 c -0.0489,4.39454 -0.0733,8.76465 -0.0733,13.11035 l 0,0.36621"
         style="font-size:75px;font-variant:normal;font-weight:bold;font-stretch:normal;font-family:PTF NORDIC Rnd;-inkscape-font-specification:PTF NORDIC Rnd Bold"
         id="path4740"
         inkscape:connector-curvature="0" />
      <path
         d="m 158.33594,435.38859 0,43.28613 0,5.41992 0,0.36621 c -0.0977,0.48829 -0.26857,0.90332 -0.5127,1.24512 -0.24415,0.43945 -0.56154,0.78125 -0.95215,1.02539 -0.0488,0 -0.0733,0 -0.0732,0 -0.0977,0 -0.12208,0.0244 -0.0732,0.0732 -0.4883,0.19531 -0.97658,0.29297 -1.46484,0.29297 l -3.8086,0 c -1.80665,-0.0488 -2.80762,-0.97656 -3.00293,-2.7832 l 0,-48.99903 c 0.0977,-1.80658 1.09863,-2.85639 3.00293,-3.14941 l 3.8086,0 c 1.0742,0.0977 1.92869,0.61041 2.56347,1.53809 0.34178,0.53716 0.51268,1.09868 0.5127,1.68457"
         style="font-size:75px;font-variant:normal;font-weight:bold;font-stretch:normal;font-family:PTF NORDIC Rnd;-inkscape-font-specification:PTF NORDIC Rnd Bold"
         id="path4742"
         inkscape:connector-curvature="0" />
      <path
         d="m 189.83008,481.2382 c -0.34182,1.5625 -0.97659,3.00293 -1.9043,4.32129 -1.41604,1.26953 -3.10061,1.78222 -5.05371,1.53808 -3.51564,-0.3418 -5.51759,-2.34375 -6.00586,-6.00586 -1.80665,-7.42186 -3.61329,-14.84373 -5.41992,-22.26562 -1.85548,-7.66598 -3.71094,-15.35641 -5.56641,-23.07129 -0.0977,-2.0019 0.87891,-3.19819 2.92969,-3.58887 l 3.80859,0 c 1.75781,0.29302 2.73437,1.34283 2.92969,3.14941 2.58788,12.06059 5.17577,24.0723 7.76367,36.03516 1.22069,-5.90818 2.4658,-11.81638 3.73535,-17.72461 1.31834,-6.00582 2.6367,-12.03609 3.95508,-18.09082 0.24412,-1.90424 1.26951,-3.02729 3.07617,-3.36914 l 3.8086,0 c 0.29293,0.0977 0.5859,0.17095 0.8789,0.21973 1.56247,0.68364 2.19723,1.80669 1.9043,3.36914 -1.56253,6.54301 -3.12503,13.06156 -4.6875,19.55566 -2.05081,8.6426 -4.10159,17.28517 -6.15234,25.92774"
         style="font-size:75px;font-variant:normal;font-weight:bold;font-stretch:normal;font-family:PTF NORDIC Rnd;-inkscape-font-specification:PTF NORDIC Rnd Bold"
         id="path4744"
         inkscape:connector-curvature="0" />
      <path
         d="m 217.88184,442.12687 c -0.92775,0.14653 -1.44045,0.65922 -1.53809,1.53808 l 0,9.8877 c 0.14647,0.87894 0.65917,1.36722 1.53809,1.46484 l 11.05957,0 c 1.85544,0.14652 2.88083,1.14749 3.07617,3.00293 l 0,3.8086 c -0.19534,1.90432 -1.24515,2.90529 -3.14942,3.00293 l -10.98632,0 c -0.87892,0.0977 -1.39162,0.58596 -1.53809,1.46484 l 0,9.375 c 0.0976,0.97657 0.61034,1.48927 1.53809,1.53809 l 17.65136,0 c 1.75778,0.24415 2.80758,1.26954 3.14942,3.07617 l 0,3.80859 c -0.34184,1.85547 -1.44047,2.83203 -3.2959,2.92969 l -25.78125,0 c -1.80665,-0.0488 -2.78321,-1.00098 -2.92969,-2.85645 l 0,-3.44238 0,-42.11426 0,-3.36914 c 0.0488,-1.70893 0.92773,-2.75873 2.63672,-3.14941 l 26.2207,0 c 1.75778,0.34185 2.80758,1.39165 3.14942,3.14941 l 0,3.88184 c -0.34184,1.85551 -1.44047,2.85649 -3.2959,3.00293 l -17.50488,0"
         style="font-size:75px;font-variant:normal;font-weight:bold;font-stretch:normal;font-family:PTF NORDIC Rnd;-inkscape-font-specification:PTF NORDIC Rnd Bold"
         id="path4746"
         inkscape:connector-curvature="0" />
      <path
         d="m 273.39941,459.70499 0,0 c 2.78317,2.88089 4.15036,6.32327 4.10157,10.32715 l 0,13.91602 c -0.19535,1.9043 -1.19633,2.90527 -3.00293,3.00293 l -3.73535,0 c -1.90433,-0.0977 -2.92972,-1.09863 -3.07618,-3.00293 l 0,-13.1836 c -0.43947,-3.75974 -2.53908,-5.81052 -6.29882,-6.15234 l -1.46485,0 -2.34375,0 c -0.92775,0.0977 -1.46486,0.61037 -1.61133,1.53809 l 0,17.79785 c -0.19532,1.9043 -1.22071,2.90527 -3.07617,3.00293 l -3.80859,0 c -1.80665,-0.14649 -2.80762,-1.14746 -3.00293,-3.00293 l 0,-19.33594 0,-9.96094 0,-19.40918 c 0.19531,-1.70893 1.12304,-2.73432 2.7832,-3.07617 l 0.43945,0 3.95508,0 8.4961,0 c 9.81442,0.97662 15.20992,6.39653 16.18652,16.25977 -0.0977,4.34573 -1.61136,8.1055 -4.54102,11.27929 m -12.01171,-5.05371 c 3.75974,-0.34176 5.85935,-2.41696 6.29882,-6.22558 -0.43947,-3.80856 -2.53908,-5.88375 -6.29882,-6.22559 l -3.8086,0 c -0.97658,0.0977 -1.51368,0.6104 -1.61133,1.53809 l 0,9.375 c 0.0977,0.97659 0.63475,1.48929 1.61133,1.53808 l 3.8086,0"
         style="font-size:75px;font-variant:normal;font-weight:bold;font-stretch:normal;font-family:PTF NORDIC Rnd;-inkscape-font-specification:PTF NORDIC Rnd Bold"
         id="path4748"
         inkscape:connector-curvature="0" />
      <path
         d="m 317.05176,468.49406 c 0.19527,0.97658 0.29293,1.85548 0.29297,2.63671 l 0,0.0733 0,0 c -0.0977,5.76173 -2.3682,10.20508 -6.81153,13.33007 -4.44338,3.125 -9.37502,3.83301 -14.79492,2.12403 l 0,-0.14649 c -2.97853,-1.02539 -5.68848,-2.36816 -8.12988,-4.02832 -0.53712,-0.29296 -1.09864,-0.61034 -1.68457,-0.95215 -1.36719,-0.92772 -1.68457,-2.29491 -0.95215,-4.10156 0.53711,-0.97655 1.14746,-2.00194 1.83105,-3.07617 1.02539,-1.56249 2.41699,-1.9287 4.17481,-1.09863 0.5371,0.34181 1.19628,0.6836 1.97754,1.02539 1.66014,1.07423 3.44237,2.02638 5.34668,2.85644 1.9531,0.78126 3.90623,0.75685 5.85937,-0.0732 3.41795,-2.49022 3.88181,-5.51756 1.3916,-9.08203 -1.80666,-1.61131 -3.85744,-3.02732 -6.15234,-4.24805 -2.09962,-1.02536 -4.19923,-2.17282 -6.29883,-3.44238 -4.39454,-1.90427 -7.10449,-5.05368 -8.12988,-9.44824 -0.29297,-0.9277 -0.41504,-1.8066 -0.36621,-2.63672 l 0,-0.0732 c 0.0488,-5.2734 2.0996,-9.61909 6.15234,-13.03711 4.05272,-3.41792 8.76463,-4.49213 14.13574,-3.22266 l 0,0.14649 c 3.36912,1.02544 6.51853,2.44145 9.44825,4.24804 l -0.0732,0 c 0.58591,0.39068 1.19626,0.73247 1.83106,1.02539 1.70895,1.1231 2.05074,2.61236 1.02539,4.46778 -0.68363,1.02543 -1.34281,2.07524 -1.97754,3.14941 -1.07425,1.56254 -2.46585,1.92875 -4.1748,1.09863 -0.53714,-0.34175 -1.14749,-0.68355 -1.83106,-1.02539 -3.22268,-2.49019 -6.78713,-3.46675 -10.69336,-2.92968 -3.95509,2.39262 -4.68751,5.4932 -2.19726,9.30175 1.90428,1.56254 3.97947,2.83207 6.22558,3.8086 2.09959,1.1719 4.22361,2.36819 6.37207,3.58886 4.34567,2.05081 7.08005,5.29788 8.20313,9.74122"
         style="font-size:75px;font-variant:normal;font-weight:bold;font-stretch:normal;font-family:PTF NORDIC Rnd;-inkscape-font-specification:PTF NORDIC Rnd Bold"
         id="path4750"
         inkscape:connector-curvature="0" />
      <path
         d="m 336.31445,435.38859 0,43.28613 0,5.41992 0,0.36621 c -0.0977,0.48829 -0.26857,0.90332 -0.51269,1.24512 -0.24416,0.43945 -0.56154,0.78125 -0.95215,1.02539 -0.0488,0 -0.0733,0 -0.0732,0 -0.0977,0 -0.12209,0.0244 -0.0732,0.0732 -0.48829,0.19531 -0.97657,0.29297 -1.46484,0.29297 l -3.80859,0 c -1.80665,-0.0488 -2.80763,-0.97656 -3.00293,-2.7832 l 0,-48.99903 c 0.0976,-1.80658 1.09862,-2.85639 3.00293,-3.14941 l 3.80859,0 c 1.07421,0.0977 1.9287,0.61041 2.56348,1.53809 0.34178,0.53716 0.51268,1.09868 0.51269,1.68457"
         style="font-size:75px;font-variant:normal;font-weight:bold;font-stretch:normal;font-family:PTF NORDIC Rnd;-inkscape-font-specification:PTF NORDIC Rnd Bold"
         id="path4752"
         inkscape:connector-curvature="0" />
      <path
         d="m 377.62305,432.16593 c 1.8066,0.2442 2.83199,1.26959 3.07617,3.07617 l 0,3.8086 c -0.24418,1.85551 -1.26957,2.8809 -3.07617,3.07617 l -7.9834,0 c -0.97659,0.14653 -1.48929,0.65922 -1.53809,1.53808 -0.0489,1.70903 -0.0733,3.3936 -0.0732,5.05371 -3e-5,11.76761 -3e-5,23.51076 0,35.2295 l 0,0.51269 c -0.14651,0.43946 -0.31741,0.83008 -0.5127,1.17188 -0.29299,0.43945 -0.61037,0.75683 -0.95214,0.95215 -0.0977,0.0488 -0.1221,0.0976 -0.0733,0.14648 l -0.0732,0 c -0.4883,0.24414 -0.97658,0.3418 -1.46484,0.29297 l -3.8086,0 c -1.709,-0.14649 -2.70997,-1.07422 -3.00293,-2.7832 l 0,-40.57618 c -0.0977,-0.87886 -0.61036,-1.39155 -1.53808,-1.53808 l -8.05664,0 c -1.85548,-0.19527 -2.85645,-1.22066 -3.00293,-3.07617 l 0,-3.8086 c 0.14648,-1.80658 1.14745,-2.83197 3.00293,-3.07617 l 29.07715,0"
         style="font-size:75px;font-variant:normal;font-weight:bold;font-stretch:normal;font-family:PTF NORDIC Rnd;-inkscape-font-specification:PTF NORDIC Rnd Bold"
         id="path4754"
         inkscape:connector-curvature="0" />
      <path
         d="m 404.13672,431.57999 c 9.81442,0.92779 15.18551,6.32329 16.11328,16.18653 l 0,36.25488 c -0.24418,1.80664 -1.24515,2.80762 -3.00293,3.00293 l -3.88184,0 c -1.85549,-0.24414 -2.85647,-1.29395 -3.00293,-3.14942 l 0,-12.67089 c -0.0977,-0.87889 -0.58596,-1.39159 -1.46484,-1.53809 l -9.44824,0 c -0.92775,0.1465 -1.44044,0.6592 -1.53809,1.53809 l 0,12.67089 c -0.19532,1.9043 -1.22071,2.95411 -3.07617,3.14942 l -3.80859,0 c -1.75782,-0.14649 -2.7588,-1.07422 -3.00293,-2.7832 l 0,-36.47461 c 0.8789,-9.81441 6.24999,-15.20991 16.11328,-16.18653 m 6.22558,26.66016 0,-10.18066 c -0.39065,-3.80856 -2.46584,-5.88375 -6.22558,-6.22559 -3.80861,0.39067 -5.8838,2.46586 -6.22559,6.22559 l 0,10.18066 c 0.0488,1.02542 0.56151,1.53811 1.53809,1.53809 l 9.44824,0 c 0.83005,-0.0976 1.31833,-0.61033 1.46484,-1.53809"
         style="font-size:75px;font-variant:normal;font-weight:bold;font-stretch:normal;font-family:PTF NORDIC Rnd;-inkscape-font-specification:PTF NORDIC Rnd Bold"
         id="path4756"
         inkscape:connector-curvature="0" />
      <path
         d="m 454.89355,459.70499 0,0 c 2.78317,2.88089 4.15036,6.32327 4.10157,10.32715 l 0,13.91602 c -0.19535,1.9043 -1.19633,2.90527 -3.00293,3.00293 l -3.73535,0 c -1.90433,-0.0977 -2.92972,-1.09863 -3.07618,-3.00293 l 0,-13.1836 c -0.43947,-3.75974 -2.53908,-5.81052 -6.29882,-6.15234 l -1.46485,0 -2.34375,0 c -0.92775,0.0977 -1.46486,0.61037 -1.61133,1.53809 l 0,17.79785 c -0.19532,1.9043 -1.22071,2.90527 -3.07617,3.00293 l -3.80859,0 c -1.80665,-0.14649 -2.80762,-1.14746 -3.00293,-3.00293 l 0,-19.33594 0,-9.96094 0,-19.40918 c 0.19531,-1.70893 1.12304,-2.73432 2.7832,-3.07617 l 0.43945,0 3.95508,0 8.4961,0 c 9.81442,0.97662 15.20992,6.39653 16.18652,16.25977 -0.0977,4.34573 -1.61136,8.1055 -4.54102,11.27929 m -12.01171,-5.05371 c 3.75974,-0.34176 5.85935,-2.41696 6.29882,-6.22558 -0.43947,-3.80856 -2.53908,-5.88375 -6.29882,-6.22559 l -3.8086,0 c -0.97657,0.0977 -1.51368,0.6104 -1.61133,1.53809 l 0,9.375 c 0.0976,0.97659 0.63476,1.48929 1.61133,1.53808 l 3.8086,0"
         style="font-size:75px;font-variant:normal;font-weight:bold;font-stretch:normal;font-family:PTF NORDIC Rnd;-inkscape-font-specification:PTF NORDIC Rnd Bold"
         id="path4758"
         inkscape:connector-curvature="0" />
      <path
         d="m 478.55078,435.38859 0,43.28613 0,5.41992 0,0.36621 c -0.0977,0.48829 -0.26857,0.90332 -0.51269,1.24512 -0.24416,0.43945 -0.56154,0.78125 -0.95215,1.02539 -0.0488,0 -0.0733,0 -0.0732,0 -0.0977,0 -0.12209,0.0244 -0.0732,0.0732 -0.48829,0.19531 -0.97657,0.29297 -1.46484,0.29297 l -3.80859,0 c -1.80665,-0.0488 -2.80763,-0.97656 -3.00293,-2.7832 l 0,-48.99903 c 0.0976,-1.80658 1.09862,-2.85639 3.00293,-3.14941 l 3.80859,0 c 1.0742,0.0977 1.9287,0.61041 2.56348,1.53809 0.34178,0.53716 0.51268,1.09868 0.51269,1.68457"
         style="font-size:75px;font-variant:normal;font-weight:bold;font-stretch:normal;font-family:PTF NORDIC Rnd;-inkscape-font-specification:PTF NORDIC Rnd Bold"
         id="path4760"
         inkscape:connector-curvature="0" />
      <path
         d="m 503.81934,431.50675 c 9.81442,0.97662 15.20992,6.37212 16.18652,16.18652 l 0,23.87696 c -1.02543,9.76563 -6.42093,15.08789 -16.18652,15.96679 -9.76564,-0.92773 -15.11231,-6.24999 -16.04004,-15.96679 l 0,-23.87696 c 0.83007,-9.8144 6.17674,-15.2099 16.04004,-16.18652 m 6.29882,40.13672 0,-23.65723 c -0.39065,-3.80855 -2.49025,-5.88374 -6.29882,-6.22558 -3.80861,0.39067 -5.88381,2.46586 -6.22559,6.22558 l 0,23.65723 c 0.34178,3.8086 2.41698,5.83497 6.22559,6.0791 3.80857,-0.24413 5.90817,-2.2705 6.29882,-6.0791"
         style="font-size:75px;font-variant:normal;font-weight:bold;font-stretch:normal;font-family:PTF NORDIC Rnd;-inkscape-font-specification:PTF NORDIC Rnd Bold"
         id="path4762"
         inkscape:connector-curvature="0" />
      <path
         d="m 597.05664,448.49894 0,0.21972 0,22.33887 c -1.12308,9.91212 -6.61624,15.23438 -16.47949,15.9668 l -12.81738,0 c -1.90431,-0.14649 -2.88087,-1.12305 -2.92969,-2.92969 l 0,-3.14941 0,-42.33399 0,-3.22265 c 0.0488,-1.70893 0.85449,-2.80757 2.41699,-3.2959 l 13.33008,0 c 9.86325,1.17193 15.35641,6.64067 16.47949,16.40625 m -10.62012,22.55859 0,-22.55859 c -0.29299,-3.7109 -2.3926,-5.78609 -6.29882,-6.22559 l -4.10157,0 c -0.97657,0.14653 -1.46485,0.65923 -1.46484,1.53809 l 0,32.00683 c 0.0488,0.97658 0.56151,1.48927 1.53808,1.53809 l 4.02833,0 c 3.90622,-0.29296 6.00583,-2.39257 6.29882,-6.29883"
         style="font-size:75px;font-variant:normal;font-weight:bold;font-stretch:normal;font-family:PTF NORDIC Rnd;-inkscape-font-specification:PTF NORDIC Rnd Bold"
         id="path4764"
         inkscape:connector-curvature="0" />
      <path
         d="m 615.58691,442.12687 c -0.92774,0.14653 -1.44044,0.65922 -1.53808,1.53808 l 0,9.8877 c 0.14647,0.87894 0.65916,1.36722 1.53808,1.46484 l 11.05957,0 c 1.85545,0.14652 2.88083,1.14749 3.07618,3.00293 l 0,3.8086 c -0.19535,1.90432 -1.24515,2.90529 -3.14942,3.00293 l -10.98633,0 c -0.87892,0.0977 -1.39161,0.58596 -1.53808,1.46484 l 0,9.375 c 0.0976,0.97657 0.61034,1.48927 1.53808,1.53809 l 17.65137,0 c 1.75778,0.24415 2.80758,1.26954 3.14942,3.07617 l 0,3.80859 c -0.34184,1.85547 -1.44047,2.83203 -3.2959,2.92969 l -25.78125,0 c -1.80665,-0.0488 -2.78321,-1.00098 -2.92969,-2.85645 l 0,-3.44238 0,-42.11426 0,-3.36914 c 0.0488,-1.70893 0.92773,-2.75873 2.63672,-3.14941 l 26.2207,0 c 1.75778,0.34185 2.80758,1.39165 3.14942,3.14941 l 0,3.88184 c -0.34184,1.85551 -1.44047,2.85649 -3.2959,3.00293 l -17.50489,0"
         style="font-size:75px;font-variant:normal;font-weight:bold;font-stretch:normal;font-family:PTF NORDIC Rnd;-inkscape-font-specification:PTF NORDIC Rnd Bold"
         id="path4766"
         inkscape:connector-curvature="0" />
    </g>
    <g
       transform="matrix(0.57224877,0.00250441,-0.00250441,0.57224877,587.32311,-34.898642)"
       style="font-size:12px;font-style:normal;font-weight:normal;fill:#000000;fill-opacity:1;stroke:none;font-family:Bitstream Vera Sans"
       id="flowRoot3413">
      <path
         d="m 99.375977,468.49406 c 0.195276,0.97658 0.292933,1.85548 0.292968,2.63671 l 0,0.0733 0,0 c -0.09769,5.76173 -2.368197,10.20508 -6.811523,13.33007 -4.443384,3.125 -9.37502,3.83301 -14.794922,2.12403 l 0,-0.14649 c -2.978527,-1.02539 -5.688485,-2.36816 -8.129883,-4.02832 -0.537115,-0.29296 -1.098637,-0.61034 -1.68457,-0.95215 -1.367191,-0.92772 -1.684573,-2.29491 -0.952149,-4.10156 0.537106,-0.97655 1.147457,-2.00194 1.831055,-3.07617 1.025385,-1.56249 2.416985,-1.9287 4.174805,-1.09863 0.537099,0.34181 1.196278,0.6836 1.977539,1.02539 1.660143,1.07423 3.442368,2.02638 5.34668,2.85644 1.953106,0.78126 3.906229,0.75685 5.859375,-0.0732 3.417942,-2.49022 3.881809,-5.51756 1.391601,-9.08203 -1.806663,-1.61131 -3.857442,-3.02732 -6.152344,-4.24805 -2.099625,-1.02536 -4.199232,-2.17282 -6.298828,-3.44238 -4.394538,-1.90427 -7.104496,-5.05368 -8.129883,-9.44824 -0.292971,-0.9277 -0.415042,-1.8066 -0.366211,-2.63672 l 0,-0.0732 c 0.04883,-5.2734 2.099605,-9.61909 6.152344,-13.03711 4.052721,-3.41792 8.764631,-4.49213 14.135742,-3.22266 l 0,0.14649 c 3.369114,1.02544 6.518525,2.44145 9.448243,4.24804 l -0.07324,0 c 0.585905,0.39068 1.196256,0.73247 1.831055,1.02539 1.708949,1.1231 2.050739,2.61236 1.025391,4.46778 -0.683629,1.02543 -1.342808,2.07524 -1.977539,3.14941 -1.074251,1.56254 -2.465852,1.92875 -4.174805,1.09863 -0.537138,-0.34175 -1.147489,-0.68355 -1.831055,-1.02539 -3.22268,-2.49019 -6.78713,-3.46675 -10.693359,-2.92968 -3.955091,2.39262 -4.687512,5.4932 -2.197266,9.30175 1.904281,1.56254 3.979474,2.83207 6.225586,3.8086 2.099587,1.1719 4.223608,2.36819 6.372071,3.58886 4.345671,2.05081 7.080043,5.29788 8.203125,9.74122"
         style="font-size:75px;font-variant:normal;font-weight:bold;font-stretch:normal;font-family:PTF NORDIC Rnd;-inkscape-font-specification:PTF NORDIC Rnd Bold"
         id="path4711"
         inkscape:connector-curvature="0" />
      <path
         d="m 122.95996,431.50675 c 9.81442,0.97662 15.20993,6.37212 16.18652,16.18652 l 0,23.87696 c -1.02542,9.76563 -6.42092,15.08789 -16.18652,15.96679 -9.76563,-0.92773 -15.11231,-6.24999 -16.04004,-15.96679 l 0,-23.87696 c 0.83008,-9.8144 6.17675,-15.2099 16.04004,-16.18652 m 6.29883,40.13672 0,-23.65723 c -0.39065,-3.80855 -2.49026,-5.88374 -6.29883,-6.22558 -3.80861,0.39067 -5.8838,2.46586 -6.22558,6.22558 l 0,23.65723 c 0.34178,3.8086 2.41697,5.83497 6.22558,6.0791 3.80857,-0.24413 5.90818,-2.2705 6.29883,-6.0791"
         style="font-size:75px;font-variant:normal;font-weight:bold;font-stretch:normal;font-family:PTF NORDIC Rnd;-inkscape-font-specification:PTF NORDIC Rnd Bold"
         id="path4713"
         inkscape:connector-curvature="0" />
      <path
         d="m 175.25488,432.09269 c 1.80661,0.29302 2.85641,1.34283 3.14942,3.14941 l 0,3.8086 c -0.29301,1.95317 -1.36722,2.97856 -3.22266,3.07617 l -17.43164,0 c -0.97658,0.0977 -1.51369,0.63481 -1.61133,1.61133 l 0,9.44824 c 0.0976,0.97659 0.63475,1.48929 1.61133,1.53808 l 11.05957,0 c 1.80661,0.24418 2.80759,1.24515 3.00293,3.00293 l 0,3.95508 c -0.19534,1.90432 -1.22073,2.88088 -3.07617,2.92969 l -10.98633,0 c -0.97658,0.14651 -1.51369,0.70803 -1.61133,1.68457 l 0,8.12988 0,9.52149 c -0.1465,1.85547 -1.14747,2.88086 -3.00293,3.07617 l -3.73535,0 c -1.75782,-0.0977 -2.73438,-1.00098 -2.92969,-2.70996 l 0,-9.8877 0,-0.95215 0,-34.86328 0,-3.44238 c 0.0488,-1.70893 0.90332,-2.73432 2.56348,-3.07617 l 26.2207,0"
         style="font-size:75px;font-variant:normal;font-weight:bold;font-stretch:normal;font-family:PTF NORDIC Rnd;-inkscape-font-specification:PTF NORDIC Rnd Bold"
         id="path4715"
         inkscape:connector-curvature="0" />
      <path
         d="m 216.05078,432.16593 c 1.8066,0.2442 2.83199,1.26959 3.07617,3.07617 l 0,3.8086 c -0.24418,1.85551 -1.26957,2.8809 -3.07617,3.07617 l -7.9834,0 c -0.97659,0.14653 -1.48928,0.65922 -1.53808,1.53808 -0.0489,1.70903 -0.0733,3.3936 -0.0733,5.05371 -2e-5,11.76761 -2e-5,23.51076 0,35.2295 l 0,0.51269 c -0.14651,0.43946 -0.3174,0.83008 -0.51269,1.17188 -0.29299,0.43945 -0.61038,0.75683 -0.95215,0.95215 -0.0977,0.0488 -0.12209,0.0976 -0.0732,0.14648 l -0.0732,0 c -0.48831,0.24414 -0.97659,0.3418 -1.46485,0.29297 l -3.80859,0 c -1.709,-0.14649 -2.70998,-1.07422 -3.00293,-2.7832 l 0,-40.57618 c -0.0977,-0.87886 -0.61037,-1.39155 -1.53809,-1.53808 l -8.05664,0 c -1.85547,-0.19527 -2.85645,-1.22066 -3.00293,-3.07617 l 0,-3.8086 c 0.14648,-1.80658 1.14746,-2.83197 3.00293,-3.07617 l 29.07715,0"
         style="font-size:75px;font-variant:normal;font-weight:bold;font-stretch:normal;font-family:PTF NORDIC Rnd;-inkscape-font-specification:PTF NORDIC Rnd Bold"
         id="path4717"
         inkscape:connector-curvature="0" />
      <path
         d="m 275.81641,432.16593 c 2.24603,0.48834 3.17377,1.80669 2.7832,3.95508 -0.29302,1.46489 -0.56158,2.88091 -0.80566,4.24805 -1.02545,5.3223 -2.02642,10.54691 -3.00293,15.67382 -1.07427,5.37112 -2.17291,10.66897 -3.2959,15.89356 -0.4395,2.29493 -0.92778,4.56544 -1.46485,6.81152 -0.34184,2.05079 -0.90336,4.05274 -1.68457,6.00586 -1.85551,2.49024 -4.29691,3.2959 -7.32422,2.41699 -2.58792,-0.73242 -4.10159,-2.36816 -4.54101,-4.90722 -1.80667,-7.32421 -3.36917,-14.74608 -4.6875,-22.26563 -1.02542,4.73635 -2.00198,9.35061 -2.92969,13.84278 -0.58596,3.41797 -1.36721,6.68945 -2.34375,9.81445 -1.56252,2.92969 -4.07717,4.12597 -7.54394,3.58887 -2.83205,-0.73243 -4.46779,-2.56348 -4.90723,-5.49317 -2.29493,-9.81444 -4.37012,-19.70212 -6.22559,-29.66308 -0.87891,-4.29684 -1.70898,-8.59371 -2.49023,-12.89063 -0.19532,-1.02534 -0.39063,-2.09956 -0.58594,-3.22266 -0.0977,-2.05072 0.85449,-3.32025 2.85645,-3.80859 l 3.80859,0 c 1.70897,0.43951 2.68554,1.53814 2.92969,3.2959 0.24413,1.46489 0.48827,2.95415 0.73242,4.46777 1.85545,10.3516 3.68651,20.70315 5.49316,31.05469 0.24413,-1.46483 0.48827,-2.92967 0.73243,-4.39453 1.85544,-10.35153 3.6865,-20.7275 5.49316,-31.12793 -2e-5,-0.0976 0.0244,-0.21968 0.0732,-0.36621 -2e-5,-0.14643 0.0732,-0.31733 0.21973,-0.5127 0.3906,-1.3183 1.31833,-2.12397 2.7832,-2.41699 l 0,0 3.73535,0 0,0 c 1.41599,0.29302 2.34372,1.09869 2.78321,2.41699 0.0488,0.0977 0.0732,0.21978 0.0732,0.36621 0.0488,0.19537 0.0976,0.36627 0.14648,0.5127 0.24411,1.46489 0.51266,2.95415 0.80567,4.46777 1.75777,10.3516 3.58883,20.70315 5.49316,31.05469 0.2441,-1.46483 0.48824,-2.92967 0.73242,-4.39453 1.75777,-10.35153 3.56441,-20.7275 5.41992,-31.12793 0.2441,-1.75776 1.24507,-2.85639 3.00293,-3.2959 l 3.73536,0"
         style="font-size:75px;font-variant:normal;font-weight:bold;font-stretch:normal;font-family:PTF NORDIC Rnd;-inkscape-font-specification:PTF NORDIC Rnd Bold"
         id="path4719"
         inkscape:connector-curvature="0" />
      <path
         d="m 300.86523,431.57999 c 9.81443,0.92779 15.18552,6.32329 16.11329,16.18653 l 0,36.25488 c -0.24418,1.80664 -1.24516,2.80762 -3.00293,3.00293 l -3.88184,0 c -1.8555,-0.24414 -2.85647,-1.29395 -3.00293,-3.14942 l 0,-12.67089 c -0.0977,-0.87889 -0.58596,-1.39159 -1.46484,-1.53809 l -9.44825,0 c -0.92774,0.1465 -1.44044,0.6592 -1.53808,1.53809 l 0,12.67089 c -0.19533,1.9043 -1.22072,2.95411 -3.07617,3.14942 l -3.8086,0 c -1.75781,-0.14649 -2.75879,-1.07422 -3.00293,-2.7832 l 0,-36.47461 c 0.8789,-9.81441 6.24999,-15.20991 16.11328,-16.18653 m 6.22559,26.66016 0,-10.18066 c -0.39065,-3.80856 -2.46584,-5.88375 -6.22559,-6.22559 -3.80861,0.39067 -5.8838,2.46586 -6.22558,6.22559 l 0,10.18066 c 0.0488,1.02542 0.56151,1.53811 1.53808,1.53809 l 9.44825,0 c 0.83005,-0.0976 1.31833,-0.61033 1.46484,-1.53809"
         style="font-size:75px;font-variant:normal;font-weight:bold;font-stretch:normal;font-family:PTF NORDIC Rnd;-inkscape-font-specification:PTF NORDIC Rnd Bold"
         id="path4721"
         inkscape:connector-curvature="0" />
      <path
         d="m 351.62207,459.70499 0,0 c 2.78317,2.88089 4.15036,6.32327 4.10156,10.32715 l 0,13.91602 c -0.19534,1.9043 -1.19632,2.90527 -3.00293,3.00293 l -3.73535,0 c -1.90432,-0.0977 -2.92971,-1.09863 -3.07617,-3.00293 l 0,-13.1836 c -0.43948,-3.75974 -2.53909,-5.81052 -6.29883,-6.15234 l -1.46484,0 -2.34375,0 c -0.92775,0.0977 -1.46486,0.61037 -1.61133,1.53809 l 0,17.79785 c -0.19533,1.9043 -1.22072,2.90527 -3.07617,3.00293 l -3.8086,0 c -1.80664,-0.14649 -2.80762,-1.14746 -3.00293,-3.00293 l 0,-19.33594 0,-9.96094 0,-19.40918 c 0.19531,-1.70893 1.12305,-2.73432 2.78321,-3.07617 l 0.43945,0 3.95508,0 8.49609,0 c 9.81443,0.97662 15.20993,6.39653 16.18653,16.25977 -0.0977,4.34573 -1.61137,8.1055 -4.54102,11.27929 m -12.01172,-5.05371 c 3.75974,-0.34176 5.85935,-2.41696 6.29883,-6.22558 -0.43948,-3.80856 -2.53909,-5.88375 -6.29883,-6.22559 l -3.80859,0 c -0.97658,0.0977 -1.51369,0.6104 -1.61133,1.53809 l 0,9.375 c 0.0976,0.97659 0.63475,1.48929 1.61133,1.53808 l 3.80859,0"
         style="font-size:75px;font-variant:normal;font-weight:bold;font-stretch:normal;font-family:PTF NORDIC Rnd;-inkscape-font-specification:PTF NORDIC Rnd Bold"
         id="path4723"
         inkscape:connector-curvature="0" />
      <path
         d="m 374.7666,442.12687 c -0.92775,0.14653 -1.44044,0.65922 -1.53808,1.53808 l 0,9.8877 c 0.14647,0.87894 0.65916,1.36722 1.53808,1.46484 l 11.05957,0 c 1.85544,0.14652 2.88083,1.14749 3.07617,3.00293 l 0,3.8086 c -0.19534,1.90432 -1.24514,2.90529 -3.14941,3.00293 l -10.98633,0 c -0.87892,0.0977 -1.39161,0.58596 -1.53808,1.46484 l 0,9.375 c 0.0976,0.97657 0.61033,1.48927 1.53808,1.53809 l 17.65137,0 c 1.75778,0.24415 2.80758,1.26954 3.14941,3.07617 l 0,3.80859 c -0.34183,1.85547 -1.44046,2.83203 -3.2959,2.92969 l -25.78125,0 c -1.80664,-0.0488 -2.7832,-1.00098 -2.92968,-2.85645 l 0,-3.44238 0,-42.11426 0,-3.36914 c 0.0488,-1.70893 0.92773,-2.75873 2.63672,-3.14941 l 26.2207,0 c 1.75778,0.34185 2.80758,1.39165 3.14941,3.14941 l 0,3.88184 c -0.34183,1.85551 -1.44046,2.85649 -3.2959,3.00293 l -17.50488,0"
         style="font-size:75px;font-variant:normal;font-weight:bold;font-stretch:normal;font-family:PTF NORDIC Rnd;-inkscape-font-specification:PTF NORDIC Rnd Bold"
         id="path4725"
         inkscape:connector-curvature="0" />
      <path
         d="m 469.46875,487.02433 -26.2207,0 c -1.70899,-0.24414 -2.63673,-1.24512 -2.78321,-3.00293 l 0,-3.2959 0,-45.70312 c 0.24414,-1.70893 1.24512,-2.66108 3.00293,-2.85645 l 3.8086,0 c 1.90428,0.19537 2.92967,1.22076 3.07617,3.07617 l 0,9.74121 0,30.61524 c 0.0976,0.92774 0.61034,1.44044 1.53808,1.53808 l 17.50489,0 c 1.8066,0.19533 2.85641,1.22072 3.14941,3.07618 l 0,3.80859 c -0.293,1.85547 -1.31839,2.85644 -3.07617,3.00293"
         style="font-size:75px;font-variant:normal;font-weight:bold;font-stretch:normal;font-family:PTF NORDIC Rnd;-inkscape-font-specification:PTF NORDIC Rnd Bold"
         id="path4727"
         inkscape:connector-curvature="0" />
      <path
         d="m 491.58789,435.38859 0,43.28613 0,5.41992 0,0.36621 c -0.0977,0.48829 -0.26857,0.90332 -0.51269,1.24512 -0.24416,0.43945 -0.56154,0.78125 -0.95215,1.02539 -0.0488,0 -0.0733,0 -0.0732,0 -0.0977,0 -0.12208,0.0244 -0.0732,0.0732 -0.48829,0.19531 -0.97657,0.29297 -1.46484,0.29297 l -3.8086,0 c -1.80664,-0.0488 -2.80762,-0.97656 -3.00292,-2.7832 l 0,-48.99903 c 0.0976,-1.80658 1.09862,-2.85639 3.00292,-3.14941 l 3.8086,0 c 1.0742,0.0977 1.9287,0.61041 2.56348,1.53809 0.34178,0.53716 0.51268,1.09868 0.51269,1.68457"
         style="font-size:75px;font-variant:normal;font-weight:bold;font-stretch:normal;font-family:PTF NORDIC Rnd;-inkscape-font-specification:PTF NORDIC Rnd Bold"
         id="path4729"
         inkscape:connector-curvature="0" />
      <path
         d="m 532.82324,448.4257 c -0.14652,4.39456 -1.70902,8.17874 -4.6875,11.35254 2.97848,3.12502 4.54098,6.83595 4.6875,11.13281 -0.9766,9.91211 -6.39651,15.2832 -16.25976,16.11328 l -12.81739,0 c -1.85547,-0.14649 -2.83203,-1.14746 -2.92968,-3.00293 l 0,-3.2959 0,-42.11426 0,-3.36914 c 0.0976,-1.6601 0.95214,-2.7099 2.56347,-3.14941 l 13.1836,0 c 9.81442,0.97661 15.23434,6.42095 16.25976,16.33301 m -16.55273,28.78418 c 3.75974,-0.29296 5.81052,-2.39257 6.15234,-6.29883 -0.39065,-3.75975 -2.44143,-5.83494 -6.15234,-6.22559 l -4.10156,0 c -0.97658,0.0977 -1.48928,0.63479 -1.53809,1.61133 l 0,9.375 c 0.0488,0.97657 0.53709,1.48927 1.46484,1.53809 l 4.17481,0 m 0,-22.48536 c 3.75974,-0.29293 5.81052,-2.39254 6.15234,-6.29882 -0.34182,-3.80856 -2.3926,-5.88375 -6.15234,-6.22559 l -4.17481,0 c -0.92775,0.14653 -1.41603,0.68364 -1.46484,1.61133 l 0,9.375 c 0.0488,1.02542 0.56151,1.53812 1.53809,1.53808 l 4.10156,0"
         style="font-size:75px;font-variant:normal;font-weight:bold;font-stretch:normal;font-family:PTF NORDIC Rnd;-inkscape-font-specification:PTF NORDIC Rnd Bold"
         id="path4731"
         inkscape:connector-curvature="0" />
      <path
         d="m 567.54004,459.70499 0,0 c 2.78317,2.88089 4.15035,6.32327 4.10156,10.32715 l 0,13.91602 c -0.19535,1.9043 -1.19632,2.90527 -3.00293,3.00293 l -3.73535,0 c -1.90432,-0.0977 -2.92971,-1.09863 -3.07617,-3.00293 l 0,-13.1836 c -0.43948,-3.75974 -2.53909,-5.81052 -6.29883,-6.15234 l -1.46484,0 -2.34375,0 c -0.92775,0.0977 -1.46486,0.61037 -1.61133,1.53809 l 0,17.79785 c -0.19533,1.9043 -1.22072,2.90527 -3.07617,3.00293 l -3.8086,0 c -1.80664,-0.14649 -2.80762,-1.14746 -3.00293,-3.00293 l 0,-19.33594 0,-9.96094 0,-19.40918 c 0.19531,-1.70893 1.12305,-2.73432 2.78321,-3.07617 l 0.43945,0 3.95508,0 8.49609,0 c 9.81443,0.97662 15.20993,6.39653 16.18652,16.25977 -0.0977,4.34573 -1.61136,8.1055 -4.54101,11.27929 m -12.01172,-5.05371 c 3.75974,-0.34176 5.85935,-2.41696 6.29883,-6.22558 -0.43948,-3.80856 -2.53909,-5.88375 -6.29883,-6.22559 l -3.80859,0 c -0.97658,0.0977 -1.51369,0.6104 -1.61133,1.53809 l 0,9.375 c 0.0976,0.97659 0.63475,1.48929 1.61133,1.53808 l 3.80859,0"
         style="font-size:75px;font-variant:normal;font-weight:bold;font-stretch:normal;font-family:PTF NORDIC Rnd;-inkscape-font-specification:PTF NORDIC Rnd Bold"
         id="path4733"
         inkscape:connector-curvature="0" />
      <path
         d="m 590.68457,442.12687 c -0.92775,0.14653 -1.44044,0.65922 -1.53809,1.53808 l 0,9.8877 c 0.14648,0.87894 0.65917,1.36722 1.53809,1.46484 l 11.05957,0 c 1.85544,0.14652 2.88083,1.14749 3.07617,3.00293 l 0,3.8086 c -0.19534,1.90432 -1.24514,2.90529 -3.14941,3.00293 l -10.98633,0 c -0.87892,0.0977 -1.39161,0.58596 -1.53809,1.46484 l 0,9.375 c 0.0977,0.97657 0.61034,1.48927 1.53809,1.53809 l 17.65137,0 c 1.75778,0.24415 2.80758,1.26954 3.14941,3.07617 l 0,3.80859 c -0.34183,1.85547 -1.44046,2.83203 -3.2959,2.92969 l -25.78125,0 c -1.80664,-0.0488 -2.7832,-1.00098 -2.92968,-2.85645 l 0,-3.44238 0,-42.11426 0,-3.36914 c 0.0488,-1.70893 0.92773,-2.75873 2.63671,-3.14941 l 26.22071,0 c 1.75778,0.34185 2.80758,1.39165 3.14941,3.14941 l 0,3.88184 c -0.34183,1.85551 -1.44046,2.85649 -3.2959,3.00293 l -17.50488,0"
         style="font-size:75px;font-variant:normal;font-weight:bold;font-stretch:normal;font-family:PTF NORDIC Rnd;-inkscape-font-specification:PTF NORDIC Rnd Bold"
         id="path4735"
         inkscape:connector-curvature="0" />
    </g>
    <g
       transform="matrix(0.99999997,-2.5292055e-4,2.5292055e-4,0.99999997,-88.725503,103.21582)"
       style="font-size:77.02173615px;font-style:normal;font-variant:normal;font-weight:normal;font-stretch:normal;text-align:center;line-height:125%;writing-mode:lr-tb;text-anchor:middle;fill:#ffffff;fill-opacity:1;stroke:none;font-family:Dream of me;-inkscape-font-specification:Dream of me"
       id="text3142-8">
      <text
         xml:space="preserve"
         style="font-size:131.08444214px;font-style:normal;font-variant:normal;font-weight:normal;font-stretch:normal;text-align:center;line-height:100%;writing-mode:lr-tb;text-anchor:middle;fill:#ffffff;fill-opacity:1;stroke:none;font-family:Dream of me;-inkscape-font-specification:Dream of me"
         x="448.03406"
         y="118.59683"
         id="text2996-3"
         transform="matrix(0.99999997,2.5292055e-4,-2.5292055e-4,0.99999997,0,0)"
         sodipodi:linespacing="100%"><tspan
           sodipodi:role="line"
           id="tspan2998-8"
           x="448.03406"
           y="118.59683">5º</tspan></text>
    </g>
    <path
       transform="matrix(0.09765942,0.09272855,-0.09765945,0.09272851,557.94444,126.7384)"
       d="M 209.32127,130.18377 269.72848,355.62654 104.69292,520.66209 -120.74984,460.25489 -181.15705,234.81212 -16.121492,69.776566 209.32127,130.18377 z"
       inkscape:randomized="0"
       inkscape:rounded="0"
       inkscape:flatsided="true"
       sodipodi:arg2="-0.26179938"
       sodipodi:arg1="-0.78539816"
       sodipodi:r2="116.69776"
       sodipodi:r1="233.39552"
       sodipodi:cy="295.21933"
       sodipodi:cx="44.285713"
       sodipodi:sides="6"
       id="path3562"
       style="text-align:center;text-anchor:middle;fill:#000000;fill-opacity:1;stroke:none"
       sodipodi:type="star" />
    <path
       sodipodi:type="star"
       style="fill:#ffffff;fill-opacity:1;stroke:none"
       id="path3566"
       sodipodi:sides="6"
       sodipodi:cx="44.285713"
       sodipodi:cy="295.21933"
       sodipodi:r1="233.39552"
       sodipodi:r2="116.69776"
       sodipodi:arg1="-0.78539816"
       sodipodi:arg2="-0.26179938"
       inkscape:flatsided="true"
       inkscape:rounded="0"
       inkscape:randomized="0"
       d="M 209.32127,130.18377 269.72848,355.62654 104.69292,520.66209 -120.74984,460.25489 -181.15705,234.81212 -16.121492,69.776566 209.32127,130.18377 z"
       transform="matrix(0.09765942,0.09272855,-0.09765945,0.09272852,507.64934,154.3109)" />
    <path
       transform="matrix(0.09765942,0.09272855,-0.09765945,0.09272852,557.94305,181.88007)"
       d="M 209.32127,130.18377 269.72848,355.62654 104.69292,520.66209 -120.74984,460.25489 -181.15705,234.81212 -16.121492,69.776566 209.32127,130.18377 z"
       inkscape:randomized="0"
       inkscape:rounded="0"
       inkscape:flatsided="true"
       sodipodi:arg2="-0.26179938"
       sodipodi:arg1="-0.78539816"
       sodipodi:r2="116.69776"
       sodipodi:r1="233.39552"
       sodipodi:cy="295.21933"
       sodipodi:cx="44.285713"
       sodipodi:sides="6"
       id="path3568"
       style="fill:#000000;fill-opacity:1;stroke:none"
       sodipodi:type="star" />
    <text
       xml:space="preserve"
       style="font-size:39.50212097000000000px;font-style:normal;font-weight:normal;text-align:center;text-anchor:middle;fill:#000000;fill-opacity:1;stroke:none;font-family:Bitstream Vera Sans"
       x="312.18747"
       y="414.6561"
       id="text3570"
       transform="matrix(0.88875294,-0.48721374,0.51312163,0.84387917,0,0)"><tspan
         sodipodi:role="line"
         id="tspan3572"
         x="312.18747"
         y="414.6561">C</tspan></text>
    <path
       sodipodi:type="star"
       style="text-align:center;text-anchor:middle;fill:#ffffff;fill-opacity:1;stroke:none"
       id="path3574"
       sodipodi:sides="6"
       sodipodi:cx="44.285713"
       sodipodi:cy="295.21933"
       sodipodi:r1="233.39552"
       sodipodi:r2="116.69776"
       sodipodi:arg1="-0.78539816"
       sodipodi:arg2="-0.26179938"
       inkscape:flatsided="true"
       inkscape:rounded="0"
       inkscape:randomized="0"
       d="M 209.32127,130.18377 269.72848,355.62654 104.69292,520.66209 -120.74984,460.25489 -181.15705,234.81212 -16.121492,69.776566 209.32127,130.18377 z"
       transform="matrix(0.09765942,0.09272855,-0.09765945,0.09272852,608.23954,154.30764)" />
    <text
       id="text3576"
       y="414.6561"
       x="368.77966"
       style="font-size:39.50212097px;font-style:normal;font-weight:normal;text-align:center;text-anchor:middle;fill:#ffffff;fill-opacity:1;stroke:none;font-family:Bitstream Vera Sans"
       xml:space="preserve"
       transform="matrix(0.88875294,-0.48721374,0.51312163,0.84387917,0,0)"><tspan
         y="414.6561"
         x="368.77966"
         id="tspan3578"
         sodipodi:role="line">U</tspan></text>
    <path
       sodipodi:type="star"
       style="fill:#000000;stroke:#ffffff;stroke-width:11.08501625000000068;stroke-miterlimit:4;stroke-opacity:1;stroke-dasharray:22.17003134000000131, 11.08501567000000065;stroke-dashoffset:0"
       id="path3588"
       sodipodi:sides="6"
       sodipodi:cx="44.285713"
       sodipodi:cy="295.21933"
       sodipodi:r1="233.39552"
       sodipodi:r2="116.69776"
       sodipodi:arg1="-0.78539816"
       sodipodi:arg2="-0.26179938"
       inkscape:flatsided="true"
       inkscape:rounded="0"
       inkscape:randomized="0"
       d="M 209.32127,130.18377 269.72848,355.62654 104.69292,520.66209 -120.74984,460.25489 -181.15705,234.81212 -16.121492,69.776566 209.32127,130.18377 z"
       transform="matrix(0.0886361,0.08416176,-0.08863442,0.08416012,555.6783,184.78902)" />
    <text
       xml:space="preserve"
       style="font-size:39.50212097px;font-style:normal;font-weight:normal;text-align:center;text-anchor:middle;fill:#ffffff;fill-opacity:1;stroke:none;font-family:Bitstream Vera Sans"
       x="340.83978"
       y="463.66202"
       id="text3580"
       transform="matrix(0.88875294,-0.48721374,0.51312163,0.84387917,0,0)"><tspan
         sodipodi:role="line"
         id="tspan3582"
         x="340.83978"
         y="463.66202">S</tspan></text>
    <text
       id="text3584"
       y="463.66202"
       x="396.53506"
       style="font-size:39.50212097000000000px;font-style:normal;font-weight:normal;text-align:center;text-anchor:middle;fill:#000000;fill-opacity:1;stroke:none;font-family:Bitstream Vera Sans"
       xml:space="preserve"
       transform="matrix(0.88875294,-0.48721374,0.51312163,0.84387917,0,0)"><tspan
         y="463.66202"
         x="396.53506"
         id="tspan3586"
         sodipodi:role="line">L</tspan></text>
    <text
       sodipodi:linespacing="125%"
       id="text3590"
       y="457.34476"
       x="412.84213"
       style="font-size:41.40865707px;font-style:normal;font-variant:normal;font-weight:bold;font-stretch:normal;text-align:center;line-height:125%;writing-mode:lr-tb;text-anchor:middle;fill:#000000;fill-opacity:1;stroke:none;font-family:Aharoni;-inkscape-font-specification:Aharoni Bold"
       xml:space="preserve"
       transform="matrix(0.88875294,-0.48721374,0.51312163,0.84387917,0,0)"><tspan
         y="457.34476"
         x="412.84213"
         id="tspan3592"
         sodipodi:role="line">*</tspan></text>
  </g>
</svg>
